<svg width="181" height="44" viewBox="0 0 181 44" fill="none" xmlns="http://www.w3.org/2000/svg">
<path d="M57.0684 33.9863C55.2545 33.9863 53.6016 33.743 52.1097 33.2566C50.6179 32.7721 49.3617 32.1321 48.3413 31.3367L50.1325 28.3528C51.0266 29.0987 52.0332 29.7075 53.1523 30.1792C54.2712 30.6529 55.5767 30.8898 57.0688 30.8898C58.8607 30.8898 60.2787 30.5168 61.3228 29.7709C62.3669 29.0247 62.8889 28.0172 62.8889 26.7483C62.8889 26.0277 62.7398 25.3877 62.4417 24.8284C62.1435 24.269 61.5648 23.7213 60.7057 23.1853C59.8481 22.6513 58.5865 22.0735 56.9207 21.452C55.1307 20.7554 53.7008 20.0532 52.6312 19.3454C51.5615 18.6361 50.7972 17.8279 50.3382 16.9209C49.8773 16.0123 49.6469 14.9363 49.6469 13.693C49.6469 12.4496 49.9887 11.3241 50.6723 10.3166C51.3565 9.31095 52.3642 8.50268 53.6952 7.8918C55.0246 7.283 56.6346 6.9786 58.5252 6.9786C60.0665 6.9786 61.4524 7.13402 62.6829 7.44486C63.9134 7.75571 65.1138 8.19724 66.2843 8.76947L64.9784 11.7921C64.1321 11.2948 63.143 10.8779 62.0112 10.5413C60.8809 10.2049 59.6942 10.0367 58.451 10.0367C56.8091 10.0367 55.5155 10.3604 54.5701 11.0076C53.6247 11.6548 53.152 12.4877 53.152 13.5063C53.152 14.1535 53.2891 14.7258 53.5634 15.2233C53.8376 15.7207 54.3789 16.2052 55.1872 16.6769C55.9955 17.1507 57.2078 17.6855 58.8241 18.2814C60.7623 19.0018 62.2973 19.7606 63.429 20.5579C64.5608 21.3532 65.3627 22.2172 65.8345 23.1497C66.3081 24.0822 66.5448 25.1455 66.5448 26.3394C66.5448 27.9559 66.1407 29.3356 65.3324 30.4784C64.5242 31.6228 63.4053 32.4931 61.9757 33.0893C60.5458 33.6873 58.9098 33.9863 57.0684 33.9863ZM78.1796 33.9834C76.3143 33.9834 74.8405 33.3673 73.7582 32.1349C72.6775 30.9042 72.1372 29.1452 72.1372 26.8577V17.7575H68.7802V14.8474H72.2114L72.9188 8.72833H75.4942V14.8477H80.8643V17.7578H75.4942V27.1182C75.4942 28.5611 75.7986 29.5686 76.4074 30.1408C77.0162 30.7131 77.7439 30.9992 78.5907 30.9992C79.2123 30.9992 79.803 30.8996 80.3625 30.7003C80.9221 30.501 81.4377 30.2643 81.9093 29.99L82.8419 32.6779C82.3447 32.9758 81.6735 33.2674 80.8285 33.5527C79.9822 33.8399 79.0994 33.9834 78.1796 33.9834ZM89.5584 33.5365H86.2017V14.1399H89.4462V18.3556C89.7701 17.5344 90.2054 16.7701 90.7521 16.0626C91.2986 15.353 91.9824 14.7807 92.8035 14.3456C93.6247 13.9105 94.5819 13.693 95.6753 13.693C96.0483 13.693 96.4212 13.7121 96.7942 13.7503C97.1672 13.7869 97.478 13.8427 97.7267 13.9177L96.72 17.3872C96.2484 17.1879 95.6889 17.0883 95.0417 17.0883C94.122 17.0883 93.2452 17.3489 92.4111 17.87C91.5794 18.393 90.8956 19.2012 90.3597 20.2948C89.8257 21.3898 89.5587 22.783 89.5587 24.4743L89.5584 33.5365ZM107.389 33.9863C105.773 33.9863 104.305 33.5758 102.987 32.7548C101.669 31.9339 100.619 30.7709 99.8358 29.266C99.0514 27.7612 98.6592 25.9895 98.6592 23.9507C98.6592 22.0107 99.0514 20.2699 99.8358 18.7283C100.619 17.187 101.7 15.9629 103.08 15.0559C104.461 14.1473 106.046 13.693 107.836 13.693C108.956 13.693 109.968 13.8858 110.875 14.2714C111.784 14.6573 112.574 15.1364 113.245 15.7089V14.1399H116.303V28.8384C116.303 29.7836 116.534 30.3988 116.994 30.6841C117.453 30.9692 117.957 31.1117 118.506 31.1117L117.795 33.7229C115.409 33.7229 113.967 32.7538 113.47 30.8156C112.898 31.611 112.121 32.3378 111.139 32.9961C110.155 33.6562 108.905 33.9863 107.389 33.9863ZM108.135 31.002C109.081 31.002 109.976 30.7717 110.82 30.311C111.665 29.8504 112.374 29.2725 112.946 28.5775V18.1689C112.275 17.6972 111.535 17.3178 110.727 17.0307C109.919 16.7454 109.067 16.6027 108.171 16.6027C106.979 16.6027 105.928 16.9071 105.02 17.5159C104.113 18.1249 103.398 18.9706 102.875 20.0529C102.354 21.1355 102.093 22.3972 102.093 23.8382C102.093 25.2314 102.354 26.4692 102.875 27.5518C103.398 28.6322 104.119 29.477 105.039 30.086C105.958 30.6969 106.991 31.002 108.135 31.002ZM122.718 42.1923C121.973 42.1923 121.32 42.1174 120.76 41.9676C120.201 41.8175 119.76 41.6438 119.438 41.4464L120.184 38.6489C120.482 38.8226 120.855 38.9716 121.303 39.0958C121.749 39.2203 122.247 39.2825 122.795 39.2825C123.839 39.2825 124.772 38.9469 125.593 38.2758C126.412 37.603 127.195 36.2846 127.941 34.3207L128.799 32.0829H127.008L119.438 15.0369L122.422 13.693L129.658 29.8448L135.291 13.8435L138.385 15.0369L131.262 34.5071C130.54 36.4966 129.756 38.0508 128.911 39.1697C128.067 40.2886 127.134 41.0721 126.114 41.5203C125.094 41.9685 123.962 42.1925 122.718 42.1923ZM149.166 33.9834C147.325 33.9834 145.671 33.5538 144.205 32.6944C142.738 31.8369 141.588 30.6438 140.754 29.1151C139.921 27.5846 139.504 25.8247 139.504 23.8354C139.504 21.7472 139.927 19.9443 140.774 18.4266C141.618 16.9109 142.775 15.7425 144.243 14.9216C145.71 14.1006 147.351 13.6902 149.166 13.6902C150.982 13.6902 152.617 14.1005 154.071 14.9213C155.526 15.7424 156.682 16.9054 157.54 18.4101C158.398 19.9132 158.826 21.697 158.826 23.7615C158.826 25.8256 158.404 27.622 157.559 29.1507C156.713 30.6812 155.562 31.8688 154.109 32.7134C152.653 33.5601 151.006 33.9834 149.166 33.9834ZM149.166 30.9992C151.13 30.9992 152.659 30.3337 153.755 29.0026C154.848 27.6716 155.395 25.9491 155.395 23.8351C155.395 22.5427 155.122 21.356 154.575 20.2752C154.028 19.1926 153.289 18.3223 152.356 17.6643C151.424 17.0042 150.36 16.6741 149.166 16.6741C147.201 16.6741 145.671 17.3205 144.578 18.6133C143.484 19.9078 142.938 21.6238 142.938 23.7612C142.938 25.054 143.211 26.2545 143.758 27.3626C144.304 28.4688 145.044 29.3511 145.977 30.0093C146.909 30.6692 147.972 30.9992 149.166 30.9992ZM168.527 33.9863C167.061 33.9863 165.737 33.7998 164.556 33.4268C163.375 33.0536 162.398 32.5681 161.627 31.9704L163.045 29.1728C163.692 29.7195 164.507 30.1738 165.488 30.5357C166.47 30.896 167.521 31.0762 168.639 31.0762C170.033 31.0762 171.084 30.8457 171.791 30.3849C172.501 29.9261 172.855 29.3356 172.855 28.6133C172.855 28.0922 172.725 27.6323 172.463 27.2336C172.202 26.8348 171.723 26.4436 171.026 26.0598C170.331 25.674 169.324 25.257 168.006 24.8091C166.19 24.1874 164.829 23.4477 163.922 22.59C163.014 21.7327 162.559 20.5452 162.559 19.0275C162.559 17.5355 163.212 16.2738 164.517 15.2426C165.823 14.2095 167.632 13.693 169.945 13.693C171.189 13.693 172.295 13.8237 173.264 14.085C174.235 14.3464 175.105 14.6756 175.875 15.0724L174.943 17.8345C174.271 17.4357 173.507 17.112 172.65 16.8633C171.792 16.6148 170.841 16.4905 169.797 16.4905C168.503 16.4905 167.52 16.7519 166.849 17.2747C166.178 17.7958 165.842 18.3672 165.842 18.9889C165.842 19.5869 166.104 20.097 166.627 20.5192C167.148 20.9418 168.167 21.4018 169.685 21.899C172.146 22.7199 173.862 23.6278 174.833 24.6227C175.802 25.6173 176.287 26.8607 176.287 28.3528C176.287 30.0934 175.584 31.4674 174.18 32.475C172.774 33.4825 170.889 33.9863 168.527 33.9863ZM22.2391 2.80469C17.1968 2.80469 12.361 4.80773 8.79554 8.37318C5.2301 11.9386 3.22705 16.7744 3.22705 21.8167C3.22705 26.859 5.2301 31.6948 8.79554 35.2602C12.361 38.8257 17.1968 40.8287 22.2391 40.8287C27.2814 40.8287 32.1171 38.8257 35.6826 35.2602C39.248 31.6948 41.2511 26.859 41.2511 21.8167C41.2511 16.7744 39.248 11.9386 35.6826 8.37318C32.1171 4.80773 27.2814 2.80469 22.2391 2.80469Z" fill="black"/>
<path d="M30.5186 11.6176C30.4363 11.655 30.22 11.8476 29.9794 12.0954C29.5228 12.5691 29.303 12.7306 29.0069 12.8063C28.5332 12.9263 28.1414 12.8406 27.2934 12.4183C26.8019 12.1742 26.6784 12.1222 26.5373 12.1222C26.383 12.1191 26.359 12.1293 26.2901 12.2325C26.1904 12.3768 26.1561 12.6445 26.1869 13.0429C26.2144 13.4792 26.3038 13.8435 26.5856 14.6988C26.8598 15.5372 26.9325 15.8326 26.9393 16.1555C26.9462 16.4784 26.8739 16.6916 26.7087 16.8599C26.5204 17.0454 26.3552 17.0968 25.5034 17.2377C24.191 17.4574 23.3426 17.7083 22.5354 18.11C20.9346 18.9107 19.7288 20.336 18.9761 22.3213C18.7844 22.83 18.6432 23.3006 18.3372 24.4616C17.9392 25.9769 17.9046 26.0524 17.2931 26.6913C16.4995 27.5225 15.8986 27.9109 14.5073 28.4878C13.793 28.7836 13.4838 28.955 13.2569 29.175C12.9512 29.4702 12.8343 29.7547 12.7894 30.2911C12.7383 30.9406 13.102 31.4692 13.8756 31.8682C14.037 31.9505 14.267 32.0464 14.3898 32.0776C14.7102 32.1599 14.9745 32.1119 14.9745 31.971C14.9745 31.9436 14.8131 31.751 14.617 31.5415C14.1193 31.0161 13.9987 30.7374 14.1293 30.394C14.2359 30.1228 14.7068 29.7519 15.2669 29.501C15.5343 29.3807 17.1114 28.7524 17.4651 28.6221C18.3549 28.2952 18.743 28.3092 19.1996 28.6938L19.3647 28.8312L22.7243 28.8244L26.0872 28.8138L26.0769 28.5567C26.0464 27.8866 25.8709 27.7525 24.9608 27.7008C24.7031 27.6874 24.4799 27.6668 24.4731 27.6562C24.4419 27.6288 24.5759 27.3128 24.7991 26.873C25.198 26.0938 25.7441 25.3514 26.0564 25.1694C26.1975 25.0868 26.2349 25.0803 26.4927 25.0937C26.8156 25.1111 26.9976 25.1869 27.1628 25.3757C27.2999 25.5337 27.3379 25.664 27.3925 26.1895C27.4268 26.5093 27.4648 26.6913 27.5436 26.8908C27.9354 27.9037 29.1036 29.0239 29.7559 29.0064C29.9794 29.0033 30.0788 28.9341 30.2025 28.6941C30.3129 28.4775 30.3266 28.2338 30.2405 28.0651C30.2094 28.0034 30.0311 27.7971 29.8488 27.6048C29.0344 26.7596 28.7841 26.0901 28.7841 24.7574C28.7841 23.4041 29.0487 22.4108 29.6294 21.5933C29.7113 21.4767 29.9896 21.1538 30.2474 20.8721C31.0683 19.9754 31.2292 19.6285 31.2292 18.7661C31.2261 18.268 31.1918 18.0034 31.0478 17.4677C30.8037 16.5436 30.8863 16.0972 31.4015 15.5197C31.7518 15.1248 31.7827 14.9874 31.6593 14.3313C31.5218 13.6135 31.4704 13.2975 31.3981 12.6685C31.3055 11.8784 31.2367 11.7033 30.9929 11.6004C30.8415 11.535 30.6834 11.5422 30.5192 11.6176" fill="white"/>
</svg>
