<svg width="181" height="44" viewBox="0 0 181 44" fill="none" xmlns="http://www.w3.org/2000/svg">
<path d="M57.0682 33.9863C55.2543 33.9863 53.6014 33.743 52.1095 33.2566C50.6176 32.7721 49.3615 32.1321 48.3411 31.3367L50.1322 28.3528C51.0263 29.0987 52.0329 29.7075 53.152 30.1792C54.2709 30.6529 55.5764 30.8898 57.0685 30.8898C58.8604 30.8898 60.2784 30.5168 61.3225 29.7709C62.3666 29.0247 62.8887 28.0172 62.8887 26.7483C62.8887 26.0277 62.7396 25.3877 62.4414 24.8284C62.1433 24.269 61.5646 23.7213 60.7054 23.1853C59.8479 22.6513 58.5862 22.0735 56.9205 21.452C55.1304 20.7554 53.7006 20.0532 52.6309 19.3454C51.5612 18.6361 50.7969 17.8279 50.3379 16.9209C49.8771 16.0123 49.6467 14.9363 49.6467 13.693C49.6467 12.4496 49.9885 11.3241 50.6721 10.3166C51.3563 9.31095 52.3639 8.50268 53.695 7.8918C55.0243 7.283 56.6343 6.9786 58.5249 6.9786C60.0663 6.9786 61.4522 7.13402 62.6827 7.44486C63.9131 7.75571 65.1136 8.19724 66.284 8.76947L64.9781 11.7921C64.1318 11.2948 63.1428 10.8779 62.011 10.5413C60.8807 10.2049 59.6939 10.0367 58.4508 10.0367C56.8089 10.0367 55.5152 10.3604 54.5698 11.0076C53.6244 11.6548 53.1517 12.4877 53.1517 13.5063C53.1517 14.1535 53.2889 14.7258 53.5631 15.2233C53.8374 15.7207 54.3787 16.2052 55.1869 16.6769C55.9952 17.1507 57.2075 17.6855 58.8239 18.2814C60.762 19.0018 62.297 19.7606 63.4288 20.5579C64.5606 21.3532 65.3624 22.2172 65.8343 23.1497C66.3078 24.0822 66.5446 25.1455 66.5446 26.3394C66.5446 27.9559 66.1405 29.3356 65.3322 30.4784C64.5239 31.6228 63.405 32.4931 61.9755 33.0893C60.5455 33.6873 58.9095 33.9863 57.0682 33.9863ZM78.1793 33.9834C76.3141 33.9834 74.8403 33.3673 73.7579 32.1349C72.6773 30.9042 72.1369 29.1452 72.1369 26.8577V17.7575H68.7799V14.8474H72.2111L72.9186 8.72833H75.4939V14.8477H80.8641V17.7578H75.4939V27.1182C75.4939 28.5611 75.7983 29.5686 76.4071 30.1408C77.0159 30.7131 77.7437 30.9992 78.5904 30.9992C79.2121 30.9992 79.8027 30.8996 80.3623 30.7003C80.9218 30.501 81.4374 30.2643 81.9091 29.99L82.8416 32.6779C82.3444 32.9758 81.6733 33.2674 80.8282 33.5527C79.9819 33.8399 79.0992 33.9834 78.1793 33.9834ZM89.5582 33.5365H86.2014V14.1399H89.446V18.3556C89.7699 17.5344 90.2052 16.7701 90.7519 16.0626C91.2983 15.353 91.9821 14.7807 92.8033 14.3456C93.6244 13.9105 94.5817 13.693 95.675 13.693C96.048 13.693 96.421 13.7121 96.7939 13.7503C97.1669 13.7869 97.4778 13.8427 97.7265 13.9177L96.7198 17.3872C96.2481 17.1879 95.6887 17.0883 95.0414 17.0883C94.1218 17.0883 93.2449 17.3489 92.4109 17.87C91.5792 18.393 90.8953 19.2012 90.3595 20.2948C89.8255 21.3898 89.5585 22.783 89.5585 24.4743L89.5582 33.5365ZM107.389 33.9863C105.772 33.9863 104.305 33.5758 102.987 32.7548C101.669 31.9339 100.619 30.7709 99.8356 29.266C99.0512 27.7612 98.659 25.9895 98.659 23.9507C98.659 22.0107 99.0512 20.2699 99.8356 18.7283C100.618 17.187 101.7 15.9629 103.08 15.0559C104.461 14.1473 106.046 13.693 107.836 13.693C108.955 13.693 109.968 13.8858 110.875 14.2714C111.784 14.6573 112.574 15.1364 113.245 15.7089V14.1399H116.303V28.8384C116.303 29.7836 116.533 30.3988 116.994 30.6841C117.453 30.9692 117.957 31.1117 118.505 31.1117L117.795 33.7229C115.409 33.7229 113.967 32.7538 113.47 30.8156C112.897 31.611 112.12 32.3378 111.138 32.9961C110.155 33.6562 108.905 33.9863 107.389 33.9863ZM108.135 31.002C109.08 31.002 109.975 30.7717 110.82 30.311C111.665 29.8504 112.373 29.2725 112.946 28.5775V18.1689C112.275 17.6972 111.535 17.3178 110.727 17.0307C109.918 16.7454 109.066 16.6027 108.171 16.6027C106.979 16.6027 105.928 16.9071 105.019 17.5159C104.113 18.1249 103.398 18.9706 102.875 20.0529C102.354 21.1355 102.093 22.3972 102.093 23.8382C102.093 25.2314 102.354 26.4692 102.875 27.5518C103.398 28.6322 104.119 29.477 105.039 30.086C105.958 30.6969 106.99 31.002 108.135 31.002ZM122.718 42.1923C121.972 42.1923 121.32 42.1174 120.76 41.9676C120.2 41.8175 119.76 41.6438 119.438 41.4464L120.184 38.6489C120.482 38.8226 120.855 38.9716 121.303 39.0958C121.749 39.2203 122.246 39.2825 122.795 39.2825C123.839 39.2825 124.772 38.9469 125.592 38.2758C126.412 37.603 127.194 36.2846 127.94 34.3207L128.799 32.0829H127.008L119.438 15.0369L122.422 13.693L129.657 29.8448L135.291 13.8435L138.384 15.0369L131.262 34.5071C130.54 36.4966 129.756 38.0508 128.911 39.1697C128.066 40.2886 127.134 41.0721 126.114 41.5203C125.093 41.9685 123.962 42.1925 122.718 42.1923ZM149.166 33.9834C147.325 33.9834 145.671 33.5538 144.204 32.6944C142.738 31.8369 141.588 30.6438 140.754 29.1151C139.92 27.5846 139.504 25.8247 139.504 23.8354C139.504 21.7472 139.927 19.9443 140.773 18.4266C141.618 16.9109 142.775 15.7425 144.243 14.9216C145.709 14.1006 147.351 13.6902 149.166 13.6902C150.982 13.6902 152.616 14.1005 154.07 14.9213C155.526 15.7424 156.682 16.9054 157.54 18.4101C158.397 19.9132 158.826 21.697 158.826 23.7615C158.826 25.8256 158.404 27.622 157.559 29.1507C156.712 30.6812 155.562 31.8688 154.109 32.7134C152.653 33.5601 151.006 33.9834 149.166 33.9834ZM149.166 30.9992C151.13 30.9992 152.659 30.3337 153.755 29.0026C154.848 27.6716 155.395 25.9491 155.395 23.8351C155.395 22.5427 155.122 21.356 154.575 20.2752C154.028 19.1926 153.289 18.3223 152.356 17.6643C151.423 17.0042 150.36 16.6741 149.166 16.6741C147.201 16.6741 145.671 17.3205 144.578 18.6133C143.484 19.9078 142.937 21.6238 142.937 23.7612C142.937 25.054 143.211 26.2545 143.758 27.3626C144.304 28.4688 145.044 29.3511 145.976 30.0093C146.909 30.6692 147.972 30.9992 149.166 30.9992ZM168.527 33.9863C167.061 33.9863 165.737 33.7998 164.556 33.4268C163.374 33.0536 162.398 32.5681 161.626 31.9704L163.045 29.1728C163.692 29.7195 164.506 30.1738 165.488 30.5357C166.47 30.896 167.52 31.0762 168.639 31.0762C170.033 31.0762 171.083 30.8457 171.791 30.3849C172.5 29.9261 172.855 29.3356 172.855 28.6133C172.855 28.0922 172.724 27.6323 172.463 27.2336C172.202 26.8348 171.722 26.4436 171.026 26.0598C170.331 25.674 169.324 25.257 168.006 24.8091C166.19 24.1874 164.829 23.4477 163.922 22.59C163.013 21.7327 162.559 20.5452 162.559 19.0275C162.559 17.5355 163.212 16.2738 164.517 15.2426C165.823 14.2095 167.632 13.693 169.945 13.693C171.188 13.693 172.295 13.8237 173.264 14.085C174.235 14.3464 175.105 14.6756 175.875 15.0724L174.942 17.8345C174.271 17.4357 173.507 17.112 172.649 16.8633C171.792 16.6148 170.841 16.4905 169.797 16.4905C168.502 16.4905 167.52 16.7519 166.849 17.2747C166.177 17.7958 165.842 18.3672 165.842 18.9889C165.842 19.5869 166.103 20.097 166.626 20.5192C167.147 20.9418 168.167 21.4018 169.684 21.899C172.146 22.7199 173.862 23.6278 174.833 24.6227C175.802 25.6173 176.286 26.8607 176.286 28.3528C176.286 30.0934 175.584 31.4674 174.179 32.475C172.774 33.4825 170.889 33.9863 168.527 33.9863ZM22.2388 2.80469C17.1965 2.80469 12.3607 4.80773 8.7953 8.37318C5.22985 11.9386 3.22681 16.7744 3.22681 21.8167C3.22681 26.859 5.22985 31.6948 8.7953 35.2602C12.3607 38.8257 17.1965 40.8287 22.2388 40.8287C27.2811 40.8287 32.1169 38.8257 35.6823 35.2602C39.2478 31.6948 41.2508 26.859 41.2508 21.8167C41.2508 16.7744 39.2478 11.9386 35.6823 8.37318C32.1169 4.80773 27.2811 2.80469 22.2388 2.80469Z" fill="white"/>
<path d="M30.5183 11.6176C30.436 11.655 30.2197 11.8476 29.9791 12.0954C29.5225 12.5691 29.3028 12.7306 29.0067 12.8063C28.533 12.9263 28.1412 12.8406 27.2931 12.4183C26.8016 12.1742 26.6782 12.1222 26.537 12.1222C26.3827 12.1191 26.3587 12.1293 26.2899 12.2325C26.1901 12.3768 26.1558 12.6445 26.1867 13.0429C26.2141 13.4792 26.3036 13.8435 26.5853 14.6988C26.8596 15.5372 26.9322 15.8326 26.9391 16.1555C26.9459 16.4784 26.8736 16.6916 26.7084 16.8599C26.5202 17.0454 26.355 17.0968 25.5032 17.2377C24.1907 17.4574 23.3424 17.7083 22.5351 18.11C20.9344 18.9107 19.7285 20.336 18.9758 22.3213C18.7842 22.83 18.643 23.3006 18.3369 24.4616C17.9389 25.9769 17.9043 26.0524 17.2928 26.6913C16.4993 27.5225 15.8984 27.9109 14.5071 28.4878C13.7927 28.7836 13.4836 28.955 13.2567 29.175C12.9509 29.4702 12.834 29.7547 12.7891 30.2911C12.738 30.9406 13.1018 31.4692 13.8753 31.8682C14.0368 31.9505 14.2668 32.0464 14.3896 32.0776C14.71 32.1599 14.9743 32.1119 14.9743 31.971C14.9743 31.9436 14.8128 31.751 14.6168 31.5415C14.1191 31.0161 13.9984 30.7374 14.129 30.394C14.2356 30.1228 14.7065 29.7519 15.2666 29.501C15.534 29.3807 17.1111 28.7524 17.4649 28.6221C18.3547 28.2952 18.7427 28.3092 19.1993 28.6938L19.3645 28.8312L22.724 28.8244L26.087 28.8138L26.0767 28.5567C26.0461 27.8866 25.8707 27.7525 24.9606 27.7008C24.7028 27.6874 24.4797 27.6668 24.4728 27.6562C24.4416 27.6288 24.5757 27.3128 24.7988 26.873C25.1978 26.0938 25.7438 25.3514 26.0561 25.1694C26.1973 25.0868 26.2347 25.0803 26.4924 25.0937C26.8153 25.1111 26.9974 25.1869 27.1625 25.3757C27.2997 25.5337 27.3377 25.664 27.3922 26.1895C27.4265 26.5093 27.4645 26.6913 27.5434 26.8908C27.9352 27.9037 29.1033 29.0239 29.7557 29.0064C29.9791 29.0033 30.0785 28.9341 30.2023 28.6941C30.3126 28.4775 30.3263 28.2338 30.2403 28.0651C30.2091 28.0034 30.0309 27.7971 29.8485 27.6048C29.0341 26.7596 28.7838 26.0901 28.7838 24.7574C28.7838 23.4041 29.0485 22.4108 29.6291 21.5933C29.7111 21.4767 29.9894 21.1538 30.2472 20.8721C31.0681 19.9754 31.2289 19.6285 31.2289 18.7661C31.2258 18.268 31.1915 18.0034 31.0475 17.4677C30.8035 16.5436 30.8861 16.0972 31.4013 15.5197C31.7516 15.1248 31.7825 14.9874 31.659 14.3313C31.5216 13.6135 31.4702 13.2975 31.3979 12.6685C31.3053 11.8784 31.2364 11.7033 30.9927 11.6004C30.8412 11.535 30.6832 11.5422 30.5189 11.6176" fill="black"/>
</svg>
